<mxfile host="65bd71144e">
    <diagram id="hRxsKbnzgLM1ulpH792F" name="Page-1">
        <mxGraphModel dx="1184" dy="706" grid="0" gridSize="10" guides="1" tooltips="1" connect="1" arrows="1" fold="1" page="0" pageScale="1" pageWidth="827" pageHeight="1169" math="0" shadow="0">
            <root>
                <mxCell id="0"/>
                <mxCell id="1" parent="0"/>
                <mxCell id="2" value="Instantiate Entity" style="rounded=1;whiteSpace=wrap;html=1;" parent="1" vertex="1">
                    <mxGeometry x="238" width="142" height="40" as="geometry"/>
                </mxCell>
                <mxCell id="5" value="ComponentA" style="ellipse;whiteSpace=wrap;html=1;aspect=fixed;" parent="1" vertex="1">
                    <mxGeometry x="80" y="80" width="80" height="80" as="geometry"/>
                </mxCell>
                <mxCell id="6" value="Entity" style="ellipse;whiteSpace=wrap;html=1;aspect=fixed;" parent="1" vertex="1">
                    <mxGeometry width="80" height="80" as="geometry"/>
                </mxCell>
                <mxCell id="7" value="ComponentB" style="ellipse;whiteSpace=wrap;html=1;aspect=fixed;" parent="1" vertex="1">
                    <mxGeometry x="80" y="171" width="80" height="80" as="geometry"/>
                </mxCell>
                <mxCell id="9" value="" style="endArrow=none;html=1;entryX=0.5;entryY=1;entryDx=0;entryDy=0;" parent="1" target="6" edge="1">
                    <mxGeometry width="50" height="50" relative="1" as="geometry">
                        <mxPoint x="40" y="211" as="sourcePoint"/>
                        <mxPoint x="459" y="168" as="targetPoint"/>
                    </mxGeometry>
                </mxCell>
                <mxCell id="10" value="" style="endArrow=classic;html=1;entryX=0;entryY=0.5;entryDx=0;entryDy=0;" parent="1" target="7" edge="1">
                    <mxGeometry width="50" height="50" relative="1" as="geometry">
                        <mxPoint x="40" y="211" as="sourcePoint"/>
                        <mxPoint x="459" y="168" as="targetPoint"/>
                    </mxGeometry>
                </mxCell>
                <mxCell id="11" value="" style="endArrow=classic;html=1;entryX=0;entryY=0.5;entryDx=0;entryDy=0;" parent="1" target="5" edge="1">
                    <mxGeometry width="50" height="50" relative="1" as="geometry">
                        <mxPoint x="40" y="120" as="sourcePoint"/>
                        <mxPoint x="78" y="120" as="targetPoint"/>
                    </mxGeometry>
                </mxCell>
                <mxCell id="12" value="" style="endArrow=classic;html=1;exitX=0.5;exitY=1;exitDx=0;exitDy=0;entryX=0.5;entryY=0;entryDx=0;entryDy=0;" parent="1" source="2" target="13" edge="1">
                    <mxGeometry width="50" height="50" relative="1" as="geometry">
                        <mxPoint x="346" y="246" as="sourcePoint"/>
                        <mxPoint x="309" y="177" as="targetPoint"/>
                    </mxGeometry>
                </mxCell>
                <mxCell id="13" value="Init" style="rounded=1;whiteSpace=wrap;html=1;" parent="1" vertex="1">
                    <mxGeometry x="238" y="205" width="142" height="40" as="geometry"/>
                </mxCell>
                <mxCell id="14" value="" style="endArrow=classic;html=1;exitX=0.5;exitY=0.975;exitDx=0;exitDy=0;entryX=0.5;entryY=0;entryDx=0;entryDy=0;exitPerimeter=0;" parent="1" source="13" target="15" edge="1">
                    <mxGeometry width="50" height="50" relative="1" as="geometry">
                        <mxPoint x="309" y="253" as="sourcePoint"/>
                        <mxPoint x="309" y="390" as="targetPoint"/>
                    </mxGeometry>
                </mxCell>
                <mxCell id="15" value="Add child" style="rounded=1;whiteSpace=wrap;html=1;" parent="1" vertex="1">
                    <mxGeometry x="238" y="410" width="142" height="40" as="geometry"/>
                </mxCell>
                <mxCell id="16" value="" style="endArrow=classic;html=1;exitX=0.5;exitY=1;exitDx=0;exitDy=0;entryX=0.5;entryY=0;entryDx=0;entryDy=0;" parent="1" source="15" target="17" edge="1">
                    <mxGeometry width="50" height="50" relative="1" as="geometry">
                        <mxPoint x="309" y="450" as="sourcePoint"/>
                        <mxPoint x="309" y="596" as="targetPoint"/>
                    </mxGeometry>
                </mxCell>
                <mxCell id="17" value="Get state" style="rounded=1;whiteSpace=wrap;html=1;" parent="1" vertex="1">
                    <mxGeometry x="238" y="798" width="142" height="40" as="geometry"/>
                </mxCell>
                <mxCell id="18" value="_init()&lt;br&gt;Entity" style="rounded=1;whiteSpace=wrap;html=1;" parent="1" vertex="1">
                    <mxGeometry x="440" y="40" width="142" height="40" as="geometry"/>
                </mxCell>
                <mxCell id="19" value="_init()&lt;br&gt;ComponentA" style="rounded=1;whiteSpace=wrap;html=1;" parent="1" vertex="1">
                    <mxGeometry x="440" y="94" width="142" height="40" as="geometry"/>
                </mxCell>
                <mxCell id="20" value="_init()&lt;br&gt;ComponentB" style="rounded=1;whiteSpace=wrap;html=1;" parent="1" vertex="1">
                    <mxGeometry x="440" y="148" width="142" height="40" as="geometry"/>
                </mxCell>
                <mxCell id="21" value="" style="endArrow=classic;html=1;entryX=0;entryY=0.5;entryDx=0;entryDy=0;dashed=1;" parent="1" target="18" edge="1">
                    <mxGeometry width="50" height="50" relative="1" as="geometry">
                        <mxPoint x="309" y="60" as="sourcePoint"/>
                        <mxPoint x="494" y="226" as="targetPoint"/>
                    </mxGeometry>
                </mxCell>
                <mxCell id="22" value="" style="endArrow=classic;html=1;entryX=0;entryY=0.5;entryDx=0;entryDy=0;dashed=1;" parent="1" target="19" edge="1">
                    <mxGeometry width="50" height="50" relative="1" as="geometry">
                        <mxPoint x="309" y="114" as="sourcePoint"/>
                        <mxPoint x="440" y="110" as="targetPoint"/>
                    </mxGeometry>
                </mxCell>
                <mxCell id="23" value="" style="endArrow=classic;html=1;entryX=0;entryY=0.5;entryDx=0;entryDy=0;dashed=1;" parent="1" target="20" edge="1">
                    <mxGeometry width="50" height="50" relative="1" as="geometry">
                        <mxPoint x="309" y="167.5" as="sourcePoint"/>
                        <mxPoint x="440" y="167.5" as="targetPoint"/>
                    </mxGeometry>
                </mxCell>
                <mxCell id="24" value="init()&lt;br&gt;Entity" style="rounded=1;whiteSpace=wrap;html=1;" parent="1" vertex="1">
                    <mxGeometry x="443" y="245" width="142" height="40" as="geometry"/>
                </mxCell>
                <mxCell id="25" value="init()&lt;br&gt;ComponentA" style="rounded=1;whiteSpace=wrap;html=1;" parent="1" vertex="1">
                    <mxGeometry x="443" y="299" width="142" height="40" as="geometry"/>
                </mxCell>
                <mxCell id="26" value="init()&lt;br&gt;ComponentB" style="rounded=1;whiteSpace=wrap;html=1;" parent="1" vertex="1">
                    <mxGeometry x="443" y="353" width="142" height="40" as="geometry"/>
                </mxCell>
                <mxCell id="27" value="" style="endArrow=classic;html=1;entryX=0;entryY=0.5;entryDx=0;entryDy=0;dashed=1;" parent="1" target="24" edge="1">
                    <mxGeometry width="50" height="50" relative="1" as="geometry">
                        <mxPoint x="312" y="265" as="sourcePoint"/>
                        <mxPoint x="497" y="431" as="targetPoint"/>
                    </mxGeometry>
                </mxCell>
                <mxCell id="28" value="" style="endArrow=classic;html=1;entryX=0;entryY=0.5;entryDx=0;entryDy=0;dashed=1;" parent="1" target="25" edge="1">
                    <mxGeometry width="50" height="50" relative="1" as="geometry">
                        <mxPoint x="312" y="319" as="sourcePoint"/>
                        <mxPoint x="443" y="315" as="targetPoint"/>
                    </mxGeometry>
                </mxCell>
                <mxCell id="29" value="" style="endArrow=classic;html=1;entryX=0;entryY=0.5;entryDx=0;entryDy=0;dashed=1;" parent="1" target="26" edge="1">
                    <mxGeometry width="50" height="50" relative="1" as="geometry">
                        <mxPoint x="312" y="372.5" as="sourcePoint"/>
                        <mxPoint x="443" y="372.5" as="targetPoint"/>
                    </mxGeometry>
                </mxCell>
                <mxCell id="30" value="_ready()&lt;br&gt;ComponentA" style="rounded=1;whiteSpace=wrap;html=1;" parent="1" vertex="1">
                    <mxGeometry x="440" y="452" width="142" height="40" as="geometry"/>
                </mxCell>
                <mxCell id="31" value="_ready()&lt;br&gt;ComponentB" style="rounded=1;whiteSpace=wrap;html=1;" parent="1" vertex="1">
                    <mxGeometry x="440" y="506" width="142" height="40" as="geometry"/>
                </mxCell>
                <mxCell id="32" value="_ready()&lt;br&gt;Entity" style="rounded=1;whiteSpace=wrap;html=1;" parent="1" vertex="1">
                    <mxGeometry x="440" y="560" width="142" height="40" as="geometry"/>
                </mxCell>
                <mxCell id="33" value="" style="endArrow=classic;html=1;entryX=0;entryY=0.5;entryDx=0;entryDy=0;dashed=1;" parent="1" target="30" edge="1">
                    <mxGeometry width="50" height="50" relative="1" as="geometry">
                        <mxPoint x="309" y="472" as="sourcePoint"/>
                        <mxPoint x="494" y="638" as="targetPoint"/>
                    </mxGeometry>
                </mxCell>
                <mxCell id="34" value="" style="endArrow=classic;html=1;entryX=0;entryY=0.5;entryDx=0;entryDy=0;dashed=1;" parent="1" target="31" edge="1">
                    <mxGeometry width="50" height="50" relative="1" as="geometry">
                        <mxPoint x="309" y="526" as="sourcePoint"/>
                        <mxPoint x="440" y="522" as="targetPoint"/>
                    </mxGeometry>
                </mxCell>
                <mxCell id="35" value="" style="endArrow=classic;html=1;entryX=0;entryY=0.5;entryDx=0;entryDy=0;dashed=1;" parent="1" target="32" edge="1">
                    <mxGeometry width="50" height="50" relative="1" as="geometry">
                        <mxPoint x="309" y="579.5" as="sourcePoint"/>
                        <mxPoint x="440" y="579.5" as="targetPoint"/>
                    </mxGeometry>
                </mxCell>
                <mxCell id="36" value="ready()&lt;br&gt;Entity" style="rounded=1;whiteSpace=wrap;html=1;" parent="1" vertex="1">
                    <mxGeometry x="440" y="650" width="142" height="40" as="geometry"/>
                </mxCell>
                <mxCell id="37" value="ready()&lt;br&gt;ComponentA" style="rounded=1;whiteSpace=wrap;html=1;" parent="1" vertex="1">
                    <mxGeometry x="440" y="704" width="142" height="40" as="geometry"/>
                </mxCell>
                <mxCell id="38" value="ready()&lt;br&gt;ComponentB" style="rounded=1;whiteSpace=wrap;html=1;" parent="1" vertex="1">
                    <mxGeometry x="440" y="758" width="142" height="40" as="geometry"/>
                </mxCell>
                <mxCell id="39" value="" style="endArrow=classic;html=1;entryX=0;entryY=0.5;entryDx=0;entryDy=0;dashed=1;" parent="1" target="36" edge="1">
                    <mxGeometry width="50" height="50" relative="1" as="geometry">
                        <mxPoint x="309" y="670" as="sourcePoint"/>
                        <mxPoint x="494" y="836" as="targetPoint"/>
                    </mxGeometry>
                </mxCell>
                <mxCell id="40" value="" style="endArrow=classic;html=1;entryX=0;entryY=0.5;entryDx=0;entryDy=0;dashed=1;" parent="1" target="37" edge="1">
                    <mxGeometry width="50" height="50" relative="1" as="geometry">
                        <mxPoint x="309" y="724" as="sourcePoint"/>
                        <mxPoint x="440" y="720" as="targetPoint"/>
                    </mxGeometry>
                </mxCell>
                <mxCell id="41" value="" style="endArrow=classic;html=1;entryX=0;entryY=0.5;entryDx=0;entryDy=0;dashed=1;" parent="1" target="38" edge="1">
                    <mxGeometry width="50" height="50" relative="1" as="geometry">
                        <mxPoint x="309" y="777.5" as="sourcePoint"/>
                        <mxPoint x="440" y="777.5" as="targetPoint"/>
                    </mxGeometry>
                </mxCell>
                <mxCell id="42" value="get_state()&lt;br&gt;Entity" style="rounded=1;whiteSpace=wrap;html=1;" parent="1" vertex="1">
                    <mxGeometry x="440" y="838" width="142" height="40" as="geometry"/>
                </mxCell>
                <mxCell id="43" value="get_state()&lt;br&gt;ComponentA" style="rounded=1;whiteSpace=wrap;html=1;" parent="1" vertex="1">
                    <mxGeometry x="440" y="892" width="142" height="40" as="geometry"/>
                </mxCell>
                <mxCell id="44" value="get_state()&lt;br&gt;ComponentB" style="rounded=1;whiteSpace=wrap;html=1;" parent="1" vertex="1">
                    <mxGeometry x="440" y="946" width="142" height="40" as="geometry"/>
                </mxCell>
                <mxCell id="45" value="" style="endArrow=classic;html=1;entryX=0;entryY=0.5;entryDx=0;entryDy=0;dashed=1;" parent="1" target="42" edge="1">
                    <mxGeometry width="50" height="50" relative="1" as="geometry">
                        <mxPoint x="309" y="858" as="sourcePoint"/>
                        <mxPoint x="494" y="1024" as="targetPoint"/>
                    </mxGeometry>
                </mxCell>
                <mxCell id="46" value="" style="endArrow=classic;html=1;entryX=0;entryY=0.5;entryDx=0;entryDy=0;dashed=1;" parent="1" target="43" edge="1">
                    <mxGeometry width="50" height="50" relative="1" as="geometry">
                        <mxPoint x="309" y="912" as="sourcePoint"/>
                        <mxPoint x="440" y="908" as="targetPoint"/>
                    </mxGeometry>
                </mxCell>
                <mxCell id="47" value="" style="endArrow=classic;html=1;entryX=0;entryY=0.5;entryDx=0;entryDy=0;dashed=1;" parent="1" target="44" edge="1">
                    <mxGeometry width="50" height="50" relative="1" as="geometry">
                        <mxPoint x="309" y="965.5" as="sourcePoint"/>
                        <mxPoint x="440" y="965.5" as="targetPoint"/>
                    </mxGeometry>
                </mxCell>
                <mxCell id="48" value="" style="endArrow=classic;html=1;exitX=0.5;exitY=1;exitDx=0;exitDy=0;entryX=0.5;entryY=0;entryDx=0;entryDy=0;" parent="1" source="17" target="49" edge="1">
                    <mxGeometry width="50" height="50" relative="1" as="geometry">
                        <mxPoint x="308.4099999999998" y="838" as="sourcePoint"/>
                        <mxPoint x="308.4099999999998" y="1004" as="targetPoint"/>
                    </mxGeometry>
                </mxCell>
                <mxCell id="49" value="Set state" style="rounded=1;whiteSpace=wrap;html=1;" parent="1" vertex="1">
                    <mxGeometry x="238" y="1004" width="142" height="40" as="geometry"/>
                </mxCell>
                <mxCell id="50" value="set_state()&lt;br&gt;Entity" style="rounded=1;whiteSpace=wrap;html=1;" parent="1" vertex="1">
                    <mxGeometry x="440" y="1044" width="142" height="40" as="geometry"/>
                </mxCell>
                <mxCell id="51" value="set_state()&lt;br&gt;ComponentA" style="rounded=1;whiteSpace=wrap;html=1;" parent="1" vertex="1">
                    <mxGeometry x="440" y="1098" width="142" height="40" as="geometry"/>
                </mxCell>
                <mxCell id="52" value="set_state()&lt;br&gt;ComponentB" style="rounded=1;whiteSpace=wrap;html=1;" parent="1" vertex="1">
                    <mxGeometry x="440" y="1152" width="142" height="40" as="geometry"/>
                </mxCell>
                <mxCell id="53" value="" style="endArrow=classic;html=1;entryX=0;entryY=0.5;entryDx=0;entryDy=0;dashed=1;" parent="1" target="50" edge="1">
                    <mxGeometry width="50" height="50" relative="1" as="geometry">
                        <mxPoint x="309" y="1064" as="sourcePoint"/>
                        <mxPoint x="494" y="1230" as="targetPoint"/>
                    </mxGeometry>
                </mxCell>
                <mxCell id="54" value="" style="endArrow=classic;html=1;entryX=0;entryY=0.5;entryDx=0;entryDy=0;dashed=1;" parent="1" target="51" edge="1">
                    <mxGeometry width="50" height="50" relative="1" as="geometry">
                        <mxPoint x="309" y="1118" as="sourcePoint"/>
                        <mxPoint x="440" y="1114" as="targetPoint"/>
                    </mxGeometry>
                </mxCell>
                <mxCell id="55" value="" style="endArrow=classic;html=1;entryX=0;entryY=0.5;entryDx=0;entryDy=0;dashed=1;" parent="1" target="52" edge="1">
                    <mxGeometry width="50" height="50" relative="1" as="geometry">
                        <mxPoint x="309" y="1171.5" as="sourcePoint"/>
                        <mxPoint x="440" y="1171.5" as="targetPoint"/>
                    </mxGeometry>
                </mxCell>
                <mxCell id="56" value="" style="endArrow=classic;html=1;exitX=0.5;exitY=1;exitDx=0;exitDy=0;entryX=0.5;entryY=0;entryDx=0;entryDy=0;" parent="1" source="49" edge="1">
                    <mxGeometry width="50" height="50" relative="1" as="geometry">
                        <mxPoint x="308.4099999999998" y="1044" as="sourcePoint"/>
                        <mxPoint x="308.40999999999985" y="1210" as="targetPoint"/>
                    </mxGeometry>
                </mxCell>
                <mxCell id="57" value="Destroy" style="rounded=1;whiteSpace=wrap;html=1;" parent="1" vertex="1">
                    <mxGeometry x="238" y="1206" width="142" height="40" as="geometry"/>
                </mxCell>
                <mxCell id="58" value="destroy()&lt;br&gt;ComponentA" style="rounded=1;whiteSpace=wrap;html=1;" parent="1" vertex="1">
                    <mxGeometry x="440" y="1246" width="142" height="40" as="geometry"/>
                </mxCell>
                <mxCell id="59" value="destroy()&lt;br&gt;ComponentB" style="rounded=1;whiteSpace=wrap;html=1;" parent="1" vertex="1">
                    <mxGeometry x="440" y="1300" width="142" height="40" as="geometry"/>
                </mxCell>
                <mxCell id="60" value="destroy()&lt;br&gt;Entity" style="rounded=1;whiteSpace=wrap;html=1;" parent="1" vertex="1">
                    <mxGeometry x="440" y="1354" width="142" height="40" as="geometry"/>
                </mxCell>
                <mxCell id="61" value="" style="endArrow=classic;html=1;entryX=0;entryY=0.5;entryDx=0;entryDy=0;dashed=1;" parent="1" target="58" edge="1">
                    <mxGeometry width="50" height="50" relative="1" as="geometry">
                        <mxPoint x="309" y="1266" as="sourcePoint"/>
                        <mxPoint x="494" y="1432" as="targetPoint"/>
                    </mxGeometry>
                </mxCell>
                <mxCell id="62" value="" style="endArrow=classic;html=1;entryX=0;entryY=0.5;entryDx=0;entryDy=0;dashed=1;" parent="1" target="59" edge="1">
                    <mxGeometry width="50" height="50" relative="1" as="geometry">
                        <mxPoint x="309" y="1320" as="sourcePoint"/>
                        <mxPoint x="440" y="1316" as="targetPoint"/>
                    </mxGeometry>
                </mxCell>
                <mxCell id="63" value="" style="endArrow=classic;html=1;entryX=0;entryY=0.5;entryDx=0;entryDy=0;dashed=1;" parent="1" target="60" edge="1">
                    <mxGeometry width="50" height="50" relative="1" as="geometry">
                        <mxPoint x="309" y="1373.5" as="sourcePoint"/>
                        <mxPoint x="440" y="1373.5" as="targetPoint"/>
                    </mxGeometry>
                </mxCell>
                <mxCell id="65" value="" style="endArrow=none;html=1;exitX=0.5;exitY=1;exitDx=0;exitDy=0;endFill=0;" parent="1" source="57" edge="1">
                    <mxGeometry width="50" height="50" relative="1" as="geometry">
                        <mxPoint x="308.5" y="1246" as="sourcePoint"/>
                        <mxPoint x="309" y="1565" as="targetPoint"/>
                    </mxGeometry>
                </mxCell>
                <mxCell id="67" value="_exit_tree()&lt;br&gt;ComponentA" style="rounded=1;whiteSpace=wrap;html=1;" parent="1" vertex="1">
                    <mxGeometry x="440" y="1439" width="142" height="40" as="geometry"/>
                </mxCell>
                <mxCell id="68" value="_exit_tree()&lt;br&gt;ComponentB" style="rounded=1;whiteSpace=wrap;html=1;" parent="1" vertex="1">
                    <mxGeometry x="440" y="1493" width="142" height="40" as="geometry"/>
                </mxCell>
                <mxCell id="69" value="_exit_tree()&lt;br&gt;Entity" style="rounded=1;whiteSpace=wrap;html=1;" parent="1" vertex="1">
                    <mxGeometry x="440" y="1547" width="142" height="40" as="geometry"/>
                </mxCell>
                <mxCell id="70" value="" style="endArrow=classic;html=1;entryX=0;entryY=0.5;entryDx=0;entryDy=0;dashed=1;" parent="1" target="67" edge="1">
                    <mxGeometry width="50" height="50" relative="1" as="geometry">
                        <mxPoint x="309" y="1459" as="sourcePoint"/>
                        <mxPoint x="494" y="1625" as="targetPoint"/>
                    </mxGeometry>
                </mxCell>
                <mxCell id="71" value="" style="endArrow=classic;html=1;entryX=0;entryY=0.5;entryDx=0;entryDy=0;dashed=1;" parent="1" target="68" edge="1">
                    <mxGeometry width="50" height="50" relative="1" as="geometry">
                        <mxPoint x="309" y="1513" as="sourcePoint"/>
                        <mxPoint x="440" y="1509" as="targetPoint"/>
                    </mxGeometry>
                </mxCell>
                <mxCell id="72" value="" style="endArrow=classic;html=1;entryX=0;entryY=0.5;entryDx=0;entryDy=0;dashed=1;" parent="1" target="69" edge="1">
                    <mxGeometry width="50" height="50" relative="1" as="geometry">
                        <mxPoint x="309" y="1566.5" as="sourcePoint"/>
                        <mxPoint x="440" y="1566.5" as="targetPoint"/>
                    </mxGeometry>
                </mxCell>
                <mxCell id="73" value="&lt;h1&gt;Legend&lt;/h1&gt;&lt;p&gt;_function(): engine functions&lt;/p&gt;&lt;p&gt;function(): custom functions&lt;br&gt;&lt;/p&gt;" style="text;html=1;strokeColor=none;fillColor=none;spacing=5;spacingTop=-20;whiteSpace=wrap;overflow=hidden;rounded=0;" parent="1" vertex="1">
                    <mxGeometry y="277" width="190" height="120" as="geometry"/>
                </mxCell>
            </root>
        </mxGraphModel>
    </diagram>
</mxfile>